<?xml version="1.0" encoding="UTF-8" standalone="no"?>
<!-- Created with Inkscape (http://www.inkscape.org/) -->

<svg
   xmlns:dc="http://purl.org/dc/elements/1.1/"
   xmlns:cc="http://creativecommons.org/ns#"
   xmlns:rdf="http://www.w3.org/1999/02/22-rdf-syntax-ns#"
   xmlns:svg="http://www.w3.org/2000/svg"
   xmlns="http://www.w3.org/2000/svg"
   xmlns:sodipodi="http://sodipodi.sourceforge.net/DTD/sodipodi-0.dtd"
   xmlns:inkscape="http://www.inkscape.org/namespaces/inkscape"
   version="1.1"
   width="744.09448"
   height="1052.3622"
   id="svg3853"
   inkscape:version="0.48.4 r9939"
   sodipodi:docname="Mommy Silhouette.svg">
  <sodipodi:namedview
     pagecolor="#ffffff"
     bordercolor="#666666"
     borderopacity="1"
     objecttolerance="10"
     gridtolerance="10"
     guidetolerance="10"
     inkscape:pageopacity="0"
     inkscape:pageshadow="2"
     inkscape:window-width="1366"
     inkscape:window-height="710"
     id="namedview2995"
     showgrid="false"
     inkscape:zoom="0.50077816"
     inkscape:cx="372.04724"
     inkscape:cy="526.18109"
     inkscape:window-x="0"
     inkscape:window-y="27"
     inkscape:window-maximized="1"
     inkscape:current-layer="svg3853" />
  <defs
     id="defs3855" />
  <metadata
     id="metadata3858">
    <rdf:RDF>
      <cc:Work
         rdf:about="">
        <dc:format>image/svg+xml</dc:format>
        <dc:type
           rdf:resource="http://purl.org/dc/dcmitype/StillImage" />
        <dc:title />
      </cc:Work>
    </rdf:RDF>
  </metadata>
  <g
     id="layer1">
    <path
       d="M 276.93929,140.37897 C 172.52213,42.89845 19.95035,302.4405 28.888062,315.84704 c -8.445728,68.64797 35.889945,92.05475 71.878488,122.61622 l -21.140764,62.01283 -26.778226,0 -7.132413,119.29917 9.951179,0.49828 -46.5096348,359.39241 190.2665988,29.59695 0,39.4627 402.01582,-4.2281 C 698.16454,771.40071 445.30101,632.3083 283.9862,665.37376 333.02079,644.1617 338.01779,585.71295 298.08,555.44198 256.87401,540.28531 213.03846,530.73298 169.24246,520.70572 l 10.53496,-48.65907 c 37.43752,22.40289 127.19622,17.27912 189.44099,12.18614 -13.46379,-7.91401 -41.41004,-34.91694 -37.31322,-86.64161 l 22.55012,5.63754 c -4.14295,-6.30904 -7.86001,-25.60646 -7.0469,-38.05329 3.00182,-9.4676 2.15263,-19.8979 9.86564,-28.18766 l 12.68444,4.22815 -4.22815,-5.63753 26.95441,7.75157 c -11.26573,-4.88494 -21.79398,-11.7982 -31.18255,-21.8454 16.34506,-29.59701 35.34717,-59.19403 59.19407,-88.79107 -28.17031,-18.14099 -42.23476,-41.92431 -62.01281,-63.42221 -20.74116,-26.70059 -55.50552,-30.75772 -81.74417,-28.89231 z"
       id="path3004"
       style="fill:none;stroke:#000000;stroke-width:2.79043365px;stroke-linecap:butt;stroke-linejoin:miter;stroke-opacity:1" />
    <path
       d="m 122.25961,779.5337 c -4.62785,46.48505 -9.9406,90.91528 -15.50317,134.596 25.60375,8.2769 51.20753,18.9687 76.81128,21.14073 -6.58382,-52.90278 -32.69674,-97.13614 -61.30811,-155.73673 z"
       id="path3006"
       style="fill:none;stroke:#000000;stroke-width:2.79043365px;stroke-linecap:butt;stroke-linejoin:miter;stroke-opacity:1" />
    <path
       d="m 564.35664,375.49149 c -104.38788,-108.66334 -53.96082,87.70214 -2.49145,105.63785 57.95059,-15.53482 130.69553,-294.48249 2.49145,-105.63785 z"
       id="path3012"
       style="fill:none;stroke:#000000;stroke-width:2.79043365px;stroke-linecap:butt;stroke-linejoin:miter;stroke-opacity:1" />
    <path
       d="m 392.69511,426.81554 c 13.38131,-4.6369 25.41944,-8.67687 50.3275,-18.43682 l 6.97609,-94.17714 c 23.08616,-58.45672 37.96347,-59.45171 53.3172,-63.78134 l 94.17717,2.98975 c 56.85633,5.44911 93.42719,36.11801 101.15322,102.64811 l 0.49827,66.77109 c -10.63519,61.01385 -40.4972,81.22823 -63.78135,88.69597 -39.19894,9.79976 -80.765,5.39691 -122.57976,-0.49831 -42.59893,-9.3576 -54.02483,-34.17723 -65.77452,-60.2933 z"
       id="path3020"
       style="fill:none;stroke:#000000;stroke-width:2.79043365px;stroke-linecap:butt;stroke-linejoin:miter;stroke-opacity:1" />
    <path
       d="m 203.38865,1026.6865 0,-19.3475 -16.2079,-2.7998 c -8.91434,-1.5401 -52.07998,-8.30105 -95.923652,-15.02474 L 11.541313,977.2898 12.984095,970.16778 C 13.777614,966.25073 23.988281,888.20763 35.674491,796.73875 47.3607,705.26984 57.555957,627.57766 58.330583,624.08946 c 1.105228,-4.97655 0.161132,-6.34222 -4.384008,-6.34222 -5.540335,0 -5.713987,-1.07389 -3.988258,-24.66421 0.99233,-13.56528 2.623449,-39.25127 3.624726,-57.07996 l 1.820471,-32.41577 13.859709,-1.40939 13.859682,-1.40941 10.55785,-31.58539 10.557865,-31.58543 -22.87171,-19.16141 C 42.777826,386.10712 31.444041,365.58832 31.444041,328.05535 c 0,-15.92902 1.503815,-20.95584 12.706681,-42.47452 24.651917,-47.35185 71.347738,-105.17596 106.284468,-131.61363 38.72905,-29.30739 72.90579,-38.44709 100.07029,-26.76122 7.97169,3.42933 16.68372,8.65475 19.35998,11.61202 3.7511,4.14491 8.80245,5.39795 22.04645,5.46889 9.44919,0.0505 24.15681,2.46759 32.68355,5.37105 13.02569,4.43543 18.65643,8.81269 35.23457,27.39093 10.85225,12.16155 27.81929,30.0228 37.70454,39.69171 l 17.9732,17.57975 -16.81742,23.29232 c -9.24959,12.81077 -22.33977,32.65852 -29.08927,44.10611 l -12.2718,20.81386 6.49548,5.25972 c 5.85325,4.73966 5.9769,5.29276 1.25037,5.59352 -2.8848,0.18361 -6.1686,0.19283 -7.29742,0.0197 -1.12878,-0.17218 -4.29451,3.79996 -7.03494,8.82717 -3.7379,6.85696 -4.89543,14.98704 -4.63354,32.5437 l 0.34916,23.40332 -8.11267,-1.78186 -8.11272,-1.78184 0,18.4402 c 0,22.57092 7.7278,44.6837 20.48187,58.60791 l 9.21889,10.06465 -20.91318,1.76781 c -58.12811,4.91364 -120.8042,0.7695 -147.52347,-9.75422 l -13.30095,-5.23873 -2.685,10.49447 c -5.36323,20.96221 -9.6448,42.96344 -8.51421,43.75101 0.63641,0.44334 18.91535,5.03332 40.61981,10.19991 56.01934,13.33508 89.50701,24.41088 96.58467,31.94474 3.31364,3.52724 8.77563,12.63167 12.13766,20.23211 11.33443,25.62337 1.81492,55.16659 -22.7785,70.69174 -13.75484,8.68304 -14.83552,14.08889 -2.31588,11.585 47.852,-9.5704 112.88396,-0.10148 167.24207,24.35188 64.88438,29.18829 120.51329,84.4808 142.83806,141.97419 13.66439,35.19022 17.40577,55.61757 17.48964,95.49104 0.077,36.38004 -1.53373,47.71969 -12.67565,89.26324 l -5.79659,21.6127 -23.00873,1.5446 c -12.65481,0.8495 -101.96937,2.1854 -198.47682,2.9688 l -175.46804,1.4242 0,-19.3477 z m -18.2528,-99.57992 c -3.74732,-24.45466 -17.58154,-61.22295 -40.56686,-107.81773 -13.00121,-26.35542 -24.02088,-46.65052 -24.4882,-45.10022 -2.33061,7.73235 -15.72209,137.30928 -14.51556,140.45351 1.84706,4.81328 54.70373,20.95251 79.04453,24.13533 1.29901,0.16985 1.53575,-5.08201 0.52609,-11.67089 z"
       id="path3819"
       style="fill:#ff3d7f;fill-opacity:1;stroke:none" />
    <path
       d="m 546.37142,464.92123 c -14.13518,-14.85913 -31.15381,-50.8323 -36.60668,-77.37747 -9.30289,-45.28727 5.09647,-52.37836 41.40187,-20.38865 13.74186,12.10833 13.75863,12.11395 18.32196,6.14368 28.78205,-37.65582 39.02093,-49.50255 47.09916,-54.49514 5.23199,-3.23357 10.80425,-5.08094 12.38288,-4.10532 9.8326,6.0769 -2.82842,63.28753 -23.83609,107.70693 -12.41052,26.24122 -34.76076,54.40377 -43.17563,54.40377 -2.35339,0 -9.36776,-5.3495 -15.58747,-11.8878 l 0,0 z"
       id="path3821"
       style="fill:#ff3d7f;fill-opacity:1;stroke:none" />
  </g>
  <path
     style="fill:#ffffff;fill-opacity:1;stroke:none"
     d="m 559.55542,513.865 c -3.29487,-0.44758 -15.42599,-1.83019 -26.95805,-3.07244 -23.05197,-2.48319 -38.48433,-7.3244 -51.3601,-16.1119 -10.01412,-6.83449 -15.9056,-14.22838 -26.00431,-32.63581 l -7.5035,-13.67703 -22.46504,-9.91698 c -12.35577,-5.45434 -22.46504,-10.58322 -22.46504,-11.3975 0,-0.81429 9.41556,-4.83512 20.92346,-8.93517 24.60763,-8.76724 21.5156,-1.30242 25.84922,-62.40536 l 3.01194,-42.4675 8.92076,-18.43771 c 16.89482,-34.91875 26.23449,-41.43651 59.2425,-41.34287 39.79432,0.1129 90.38371,3.61757 101.71026,7.04617 18.06399,5.46806 30.16168,12.69172 42.87701,25.60236 13.14229,13.34417 20.93158,27.2553 26.44321,47.2258 2.92423,10.5954 3.56635,20.83205 3.56635,56.85367 0,42.95991 -0.12102,44.25823 -5.47041,58.69695 -13.27326,35.82628 -30.41826,53.07492 -60.86535,61.23324 -11.14011,2.985 -56.88304,5.4496 -69.45291,3.74208 l 0,0 z m 13.629,-35.95868 c 21.05419,-14.30667 49.72813,-71.52049 61.47333,-122.6592 4.0396,-17.58841 3.54419,-38.66604 -1.0276,-43.72009 -5.10489,-5.64338 -8.82412,-5.30738 -19.49593,1.76134 -10.00697,6.62835 -23.56932,21.58107 -39.42795,43.47002 l -10.49884,14.49108 -12.1197,-10.9677 c -18.28573,-16.54763 -33.27219,-22.46464 -43.30222,-17.09673 -1.96921,1.05389 -4.74774,6.08554 -6.17451,11.18145 -8.58469,30.6615 22.8226,107.85902 50.83033,124.93838 8.05833,4.91403 10.73202,4.72464 19.74309,-1.39855 l 0,0 z"
     id="path2997"
     inkscape:connector-curvature="0" />
  <path
     style="fill:#f03030;fill-opacity:1;stroke:none"
     d="m 205.10705,1025.533 c 0,-10.6145 -0.22465,-19.3034 -0.49922,-19.3088 -4.12525,-0.08 -189.642118,-29.71457 -190.330565,-30.40301 -0.530792,-0.5308 9.389814,-79.94355 22.045792,-176.47278 12.655977,-96.52922 23.010868,-177.02035 23.010868,-178.86918 0,-1.96528 -1.866176,-3.62701 -4.493008,-4.00079 -3.603498,-0.51274 -4.432807,-1.8251 -4.188924,-6.62878 5.581058,-109.9294 5.089698,-104.47297 9.514963,-105.6612 2.28756,-0.61423 7.753605,-1.14282 12.146768,-1.17463 4.393163,-0.0317 8.973334,-0.71803 10.178159,-1.52493 1.204827,-0.8069 6.856206,-15.39542 12.558623,-32.41893 L 105.41854,438.11815 92.859915,427.23556 C 65.129419,403.2059 48.224866,384.55984 41.211038,370.26585 34.877711,357.35867 34.320074,354.6702 33.659101,333.85625 l -0.713669,-22.47337 9.302913,-19.12325 C 67.64877,240.04604 123.09846,173.21293 163.05941,146.64695 c 40.16224,-26.69981 72.8809,-29.87133 101.94103,-9.88147 8.62224,5.93105 12.38089,7.09858 28.43788,8.83353 37.56865,4.05927 40.69477,5.84841 76.92295,44.02452 15.17444,15.99037 31.30384,32.42872 35.84309,36.52966 l 8.25318,7.45625 -16.42438,23.37711 c -16.54575,23.54984 -41.1623,62.47734 -41.1623,65.09219 0,0.77531 2.47115,3.58468 5.49145,6.243 l 5.49146,4.83336 -6.32704,0.0631 c -5.08588,0.0507 -7.20442,1.48276 -10.79969,7.30002 -3.81191,6.1678 -4.61238,10.86368 -5.41838,31.78657 -0.64652,16.78274 -1.65215,24.33832 -3.17856,23.8817 -1.22805,-0.36737 -4.70398,-1.20942 -7.72428,-1.87123 l -5.49145,-1.20327 0.016,11.52017 c 0.0359,27.4142 7.35213,50.96636 21.00966,67.63358 l 6.9381,8.46702 -12.48375,1.0935 c -62.60808,5.48405 -127.32333,1.03992 -157.38095,-10.80768 l -9.5563,-3.76676 -5.02496,21.37723 c -2.76373,11.75747 -5.30365,24.43901 -5.64428,28.18121 l -0.62021,6.80399 48.92386,12.47732 c 60.91903,15.53652 81.92637,22.95992 89.15412,31.50453 9.57209,11.31602 15.04115,26.03142 14.93258,40.17847 -0.15556,20.27055 -6.1652,30.24898 -30.80344,51.14628 -10.72604,9.09746 -7.60462,10.76504 14.49678,7.74474 11.38297,-1.55556 27.09473,-2.04304 41.63247,-1.29169 95.3884,4.92991 184.69172,54.37402 235.01701,130.12063 22.10402,33.26964 33.76162,68.38847 37.23805,112.18065 2.90328,36.57252 0.42761,62.91295 -9.65677,102.74532 l -7.37936,29.1478 -43.04802,1.3014 c -23.67643,0.7158 -112.46501,1.9001 -197.30796,2.6319 l -154.25993,1.3304 0,-19.299 z m -18.96329,-96.82755 c -2.37563,-15.84182 -10.82007,-42.4039 -21.37844,-67.24616 -12.52619,-29.47223 -35.67584,-76.15554 -41.0504,-82.78177 l -3.97682,-4.90296 -1.21123,5.90141 c -2.79297,13.60802 -13.26442,114.68799 -13.26442,128.04025 0,7.31434 0.7964,8.96612 5.49145,11.38963 12.47428,6.43902 71.259,21.87845 75.07479,19.71792 0.92894,-0.52599 1.07073,-5.07922 0.31507,-10.11832 l 0,0 z"
     id="path2999"
     inkscape:connector-curvature="0" />
  <path
     style="fill:#f03030;fill-opacity:1;stroke:none"
     d="m 553.38188,469.51548 c -10.25964,-9.03683 -18.51176,-21.23763 -27.78263,-41.07674 -14.34951,-30.7071 -20.94018,-64.02882 -14.89743,-75.31979 4.48253,-8.37569 18.17402,-3.07611 40.82942,15.80389 5.47132,4.55955 11.41599,8.29009 13.21037,8.29009 1.79438,0 10.49945,-9.21066 19.3446,-20.46814 20.88581,-26.58196 27.95197,-34.09728 35.93384,-38.21799 9.71927,-5.01765 11.03016,-2.97544 9.9608,15.51778 -1.66552,28.80336 -18.21857,76.83552 -36.76362,106.67741 -11.03981,17.76478 -25.77659,34.36272 -30.44051,34.28494 -1.77172,-0.0296 -5.99939,-2.5007 -9.39484,-5.49145 z"
     id="path3001"
     inkscape:connector-curvature="0" />
</svg>
